# xmcd
#
# Track frame offsets:
#	150
#	10944
#	21477
#	31767
#	40828
#	51691
#	64381
#	73769
#	87495
#	97387
#	109433
#	119074
#	126814
#	137160
#	152608
#	161739
#	170203
#	184687
#
# Disc length: 2847 seconds
#
# Revision: 3
# Processed by: cddbd v1.5.2PL0 Copyright (c) Steve Scherf et al.
# Submitted via: audiograbber 1.83.01
#
DISCID=180b1d12
DTITLE=Roy Head - Treat Him Right! - The Best Of Roy Head
DYEAR=2007
DGENRE=Oldies
TTITLE0=One More Time
TTITLE1=Don't Be Blue
TTITLE2=Live it Up
TTITLE3=Yes I Do
TTITLE4=My Baby's Fine
TTITLE5=Here I Am in Love Again
TTITLE6=Summertime Love
TTITLE7=Your Turn to Cry
TTITLE8=Walking All Day
TTITLE9=Woe Woe
TTITLE10=Talkin' About a Cow
TTITLE11=Just a Little Bit
TTITLE12=Get Back
TTITLE13=The Feeling is Gone
TTITLE14=Money (That's What I Want)
TTITLE15=Night Train
TTITLE16=Boogie Down Sunset
TTITLE17=Slip Away
EXTD=
EXTT0=
EXTT1=
EXTT2=
EXTT3=
EXTT4=
EXTT5=
EXTT6=
EXTT7=
EXTT8=
EXTT9=
EXTT10=
EXTT11=
EXTT12=
EXTT13=
EXTT14=
EXTT15=
EXTT16=
EXTT17=
PLAYORDER=
